<?xml version="1.0" encoding="utf-8"?>
<!-- Generator: Adobe Illustrator 17.1.0, SVG Export Plug-In . SVG Version: 6.00 Build 0)  -->
<!DOCTYPE svg PUBLIC "-//W3C//DTD SVG 1.1//EN" "http://www.w3.org/Graphics/SVG/1.1/DTD/svg11.dtd">
<svg version="1.1" id="Layer_1" xmlns="http://www.w3.org/2000/svg" xmlns:xlink="http://www.w3.org/1999/xlink" x="0px" y="0px"
	 width="100px" height="100px" viewBox="0 0 100 100" enable-background="new 0 0 100 100" xml:space="preserve">
<circle id="Circle" fill="#161616" cx="50" cy="50" r="50"/>
<g id="Steam">
	<g>
		<path fill="#FFFFFF" d="M33.5,2.5c0,3.5-0.1,7,0,10.5c0.2,5,6.3,6.9,10.3,7.7c3.6,0.8,7.6,0.4,11.2,0.4c3,0,14-0.4,15,3.8
			c0-1.7,0-3.3,0-5c-1.2,5.2-12.6,3.7-16.4,4.3c-4.3,0.6-3.6,2.5-3.6,6.2c0,2.8,0.1,2.8,0.1,0c0-0.7,0-1.4,0-2.1c0,0.8,0,1.7,0,2.5
			c0.9-2.2,6.3-1.9,8.2-2.1c3.7-0.2,9.1,0.3,11.6-3.1c1.4-1.9,0.3-6.4-1.6-7.5c-7.6-4.2-33.4,2.7-34.7-10.1c0,0.8,0,1.7,0,2.5
			C33.5,7.9,33.5,5.2,33.5,2.5C33.5-0.3,33.5-0.3,33.5,2.5L33.5,2.5z"/>
	</g>
</g>
<g id="Tray">
	<path fill="#FFFFFF" d="M20,70c0-16.6,13.4-30,30-30s30,13.4,30,30"/>
	<line fill="none" stroke="#FFFFFF" stroke-width="4" stroke-miterlimit="10" x1="20" y1="74" x2="80" y2="74"/>
	<line fill="none" stroke="#FFFFFF" stroke-width="2" stroke-miterlimit="10" x1="47" y1="37" x2="53" y2="37"/>
	<path fill="none" stroke="#121212" stroke-width="2" stroke-linecap="square" stroke-miterlimit="10" d="M73,65.6"/>
	<path fill="none" stroke="#121212" stroke-width="2" stroke-linecap="square" stroke-miterlimit="10" d="M53,45.6"/>
	<path fill="none" stroke="#161616" stroke-width="3" stroke-miterlimit="10" d="M54,47c11,0,20,9,20,20"/>
</g>
</svg>
